<?xml version="1.0" encoding="iso-8859-1"?>
<!DOCTYPE svg PUBLIC "-//W3C//DTD SVG 1.1//EN" "http://www.w3.org/Graphics/SVG/1.1/DTD/svg11.dtd">
<svg xmlns="http://www.w3.org/2000/svg" xmlns:xlink="http://www.w3.org/1999/xlink" version="1.1" viewBox="0 0 448.726 448.726" enable-background="new 0 0 448.726 448.726" width="512px" height="512px">
  <g>
    <path d="m433.347,137.753l-8.871-21.447c-4.725-11.429-14.142-20.31-25.565-24.547v-29.337c0-13.242-9.58-32.075-55.218-46.598-32.068-10.204-74.515-15.824-119.518-15.824-45.004,0-87.45,5.62-119.519,15.825-45.638,14.523-55.218,33.356-55.218,46.597v26.605h-15.46c-6.735,0-12.991,3.343-16.734,8.943s-4.44,12.659-1.865,18.883l8.875,21.447c4.772,11.531 13.983,20.217 25.186,24.437v137.133c0,13.242 9.58,32.075 55.218,46.597 32.069,10.205 74.515,15.825 119.519,15.825 45.003,0 87.45-5.62 119.518-15.825 45.638-14.522 55.218-33.355 55.218-46.597v-134.294h15.836c6.737,0 12.994-3.342 16.736-8.94 3.741-5.599 4.437-12.658 1.862-18.883zm-322.626-102.87c30.16-9.597 70.452-14.883 113.454-14.883s83.293,5.286 113.454,14.883c30.471,9.696 41.282,20.895 41.282,27.539 0,3.61-3.203,8.565-11.006,13.893-31.54-15.795-85.7-25.48-143.731-25.48-58.03,0-112.189,9.685-143.73,25.48-7.803-5.328-11.005-10.283-11.005-13.893-0.001-6.644 10.811-17.842 41.282-27.539zm233.226,52.943c-2.009,0.718-4.106,1.431-6.319,2.135-30.16,9.598-70.452,14.883-113.454,14.883s-83.293-5.286-113.454-14.883c-2.213-0.704-4.31-1.417-6.32-2.135 29.674-10.665 73.157-16.991 119.772-16.991 46.617,0 90.101,6.326 119.775,16.991zm-301.214,42.827l-8.895-21.498c0.005-0.037 0.053-0.108 0.14-0.127h15.46v30.818c-2.87-2.436-5.197-5.549-6.705-9.193zm294.895,196.756c-30.16,9.598-70.452,14.883-113.454,14.883s-83.293-5.286-113.454-14.883c-30.471-9.696-41.283-20.895-41.283-27.539v-134.294h29.333c5.523,0 10-4.477 10-10s-4.477-10-10-10h-29.332v-52.567c8.232,5.577 19.615,11.046 35.218,16.011 32.069,10.205 74.515,15.825 119.519,15.825 45.003,0 87.45-5.62 119.518-15.825 15.603-4.965 26.986-10.434 35.218-16.011v206.861c0,6.644-10.812,17.843-41.283,27.539zm77.119-181.833h-15.836v-31.099c3.068,2.498 5.538,5.732 7.084,9.471l8.893,21.504c-0.006,0.035-0.052,0.104-0.141,0.124z" fill="#344144"/>
    <path d="m161.528,374.382c-1.875-1.875-4.419-2.929-7.071-2.929s-5.196,1.054-7.071,2.929l-16.774,16.774c-6.37,6.369-9.878,14.838-9.878,23.846 0,9.008 3.508,17.477 9.877,23.845 6.369,6.37 14.838,9.877 23.846,9.877 9.008,0 17.477-3.508 23.845-9.877 6.37-6.369 9.877-14.838 9.877-23.846 0-9.008-3.508-17.477-9.877-23.846l-16.774-16.773zm2.633,50.325c-2.592,2.592-6.038,4.019-9.703,4.019-3.666,0-7.112-1.427-9.704-4.02-2.592-2.592-4.02-6.038-4.02-9.703s1.428-7.112 4.02-9.704l9.703-9.704 9.704,9.704c2.592,2.592 4.019,6.038 4.019,9.704s-1.427,7.111-4.019,9.704z" fill="#344144"/>
    <path d="m231.246,374.382c-3.904-3.905-10.237-3.905-14.142,0l-16.774,16.775c-6.37,6.369-9.878,14.838-9.878,23.846 0,9.008 3.508,17.477 9.877,23.846 6.575,6.575 15.209,9.861 23.846,9.861 8.635,0 17.272-3.288 23.846-9.861 6.369-6.369 9.877-14.838 9.877-23.846 0-9.008-3.508-17.477-9.877-23.846l-16.775-16.775zm2.632,50.324c-5.35,5.352-14.057,5.351-19.408,0-2.592-2.592-4.02-6.038-4.02-9.703s1.428-7.112 4.02-9.704l9.704-9.704 9.704,9.704c2.593,2.592 4.02,6.038 4.02,9.704s-1.427,7.111-4.02,9.703z" fill="#344144"/>
    <path d="m300.963,374.382c-1.876-1.875-4.419-2.929-7.071-2.929s-5.195,1.054-7.071,2.929l-16.774,16.774c-6.369,6.369-9.877,14.838-9.877,23.846 0,9.008 3.508,17.477 9.877,23.845 6.369,6.37 14.838,9.877 23.846,9.877s17.477-3.508 23.846-9.877 9.877-14.838 9.877-23.846c0-9.008-3.508-17.477-9.877-23.846l-16.776-16.773zm2.632,50.325c-2.592,2.592-6.037,4.019-9.703,4.019s-7.111-1.427-9.703-4.02c-2.593-2.592-4.02-6.038-4.02-9.703s1.427-7.112 4.02-9.704l9.703-9.703 9.703,9.704c2.593,2.592 4.02,6.038 4.02,9.704s-1.427,7.11-4.02,9.703z" fill="#344144"/>
  </g>
</svg>
